<svg width="256" height="256" viewBox="0 0 700 700" fill="none" xmlns="http://www.w3.org/2000/svg">
<path d="M346.21 633.28C502.661 633.28 629.49 506.451 629.49 350C629.49 193.549 502.661 66.72 346.21 66.72C189.759 66.72 62.9301 193.549 62.9301 350C62.9301 506.451 189.759 633.28 346.21 633.28Z" fill="#009760"/>
<path d="M349.38 626.76L142.83 625.58C123.54 625.47 107.96 609.72 108.07 590.42L110.2 216.92L386.67 218.49L384.54 592C384.43 611.29 368.68 626.87 349.38 626.76Z" fill="#FF428A"/>
<path d="M108.57 502.56L110.89 129.06C111 109.75 126.74 94.19 146.05 94.3L352.6 95.48C371.91 95.59 387.47 111.33 387.36 130.64L385.04 504.14" fill="#56001C"/>
<g filter="url(#filter0_d_11400_2987)">
<path d="M389.83 348.76L388.95 503.85L388.45 591.03C388.32 613.11 370.3 630.93 348.22 630.8L144.12 629.64C122.04 629.51 104.22 611.49 104.35 589.41L104.85 502.23L106.19 267.3H103.96C102.95 267.28 102.14 266.46 102.14 265.45L102.37 225.72C102.37 224.71 103.2 223.89 104.21 223.9L106.44 223.92L106.48 217.22L106.56 203.47L106.68 182.78L106.98 130.05C107.11 107.96 125.12 90.15 147.21 90.28L351.31 91.44C373.4 91.57 391.21 109.58 391.08 131.67L390.58 218.85L390.23 280.89L389.84 348.77L389.83 348.76Z" fill="#022A1C"/>
</g>
<path d="M379.59 218.95L379.32 130.56C379.4 115.8 367.5 103.76 352.74 103.68L144.83 102.5C130.07 102.42 118.03 114.32 117.95 129.08L116.59 502.88L116.09 590.49C116.01 605.25 127.91 617.29 142.67 617.37L350.58 618.55C365.34 618.63 377.38 606.73 377.46 591.97L379.58 218.95H379.59Z" fill="#04DA8D"/>
<mask id="mask0_11400_2987" style="mask-type:luminance" maskUnits="userSpaceOnUse" x="116" y="102" width="264" height="517">
<path d="M379.59 218.95L379.32 130.56C379.4 115.8 367.5 103.76 352.74 103.68L144.83 102.5C130.07 102.42 118.03 114.32 117.95 129.08L116.59 502.88L116.09 590.49C116.01 605.25 127.91 617.29 142.67 617.37L350.58 618.55C365.34 618.63 377.38 606.73 377.46 591.97L379.58 218.95H379.59Z" fill="white"/>
</mask>
<g mask="url(#mask0_11400_2987)">
<path d="M347.04 636.32C504.877 636.32 632.83 508.367 632.83 350.53C632.83 192.693 504.877 64.74 347.04 64.74C189.203 64.74 61.25 192.693 61.25 350.53C61.25 508.367 189.203 636.32 347.04 636.32Z" fill="#9FF6D3"/>
</g>
<g filter="url(#filter1_d_11400_2987)">
<path d="M161.98 113.39C161.98 89.4319 142.558 70.01 118.6 70.01C94.6419 70.01 75.22 89.4319 75.22 113.39C75.22 137.348 94.6419 156.77 118.6 156.77C142.558 156.77 161.98 137.348 161.98 113.39Z" fill="#FBFAF2"/>
</g>
<path d="M98.64 102.17V125.3C98.64 126.33 99.39 127.13 100.28 127.13H136.95C137.83 127.13 138.59 126.33 138.59 125.3V102.17L119.54 118.36C119.01 118.81 118.23 118.81 117.7 118.36L98.65 102.17H98.64ZM100.09 99.6801L118.6 115.42L137.11 99.6801C137.05 99.6801 136.99 99.6701 136.93 99.6701H100.26C100.2 99.6701 100.14 99.6701 100.08 99.6801H100.09ZM141.41 125.3C141.41 127.86 139.43 129.97 136.93 129.97H100.26C97.77 129.97 95.78 127.86 95.78 125.3V101.49C95.78 98.9301 97.76 96.8201 100.26 96.8201H136.93C139.42 96.8201 141.41 98.9301 141.41 101.49V125.3Z" fill="#1B1B21"/>
<path d="M354.82 181.96H178.41C177.234 181.96 176.28 182.914 176.28 184.09V195.04C176.28 196.216 177.234 197.17 178.41 197.17H354.82C355.996 197.17 356.95 196.216 356.95 195.04V184.09C356.95 182.914 355.996 181.96 354.82 181.96Z" fill="#56EEAC"/>
<path d="M354.6 364.74H141.65C140.358 364.74 139.31 365.788 139.31 367.08V377.61C139.31 378.902 140.358 379.95 141.65 379.95H354.6C355.892 379.95 356.94 378.902 356.94 377.61V367.08C356.94 365.788 355.892 364.74 354.6 364.74Z" fill="#56EEAC"/>
<path d="M272.73 391.04H141.15C140.134 391.04 139.31 391.864 139.31 392.88V404.41C139.31 405.426 140.134 406.25 141.15 406.25H272.73C273.746 406.25 274.57 405.426 274.57 404.41V392.88C274.57 391.864 273.746 391.04 272.73 391.04Z" fill="#56EEAC"/>
<path d="M354.6 434.5H141.65C140.358 434.5 139.31 435.548 139.31 436.84V447.37C139.31 448.662 140.358 449.71 141.65 449.71H354.6C355.892 449.71 356.94 448.662 356.94 447.37V436.84C356.94 435.548 355.892 434.5 354.6 434.5Z" fill="#56EEAC"/>
<path d="M198.58 460.79H140.54C139.861 460.79 139.31 461.341 139.31 462.02V474.77C139.31 475.449 139.861 476 140.54 476H198.58C199.259 476 199.81 475.449 199.81 474.77V462.02C199.81 461.341 199.259 460.79 198.58 460.79Z" fill="#56EEAC"/>
<path d="M300.36 216.42H205.94C205.073 216.42 204.37 217.123 204.37 217.99V230.06C204.37 230.927 205.073 231.63 205.94 231.63H300.36C301.227 231.63 301.93 230.927 301.93 230.06V217.99C301.93 217.123 301.227 216.42 300.36 216.42Z" fill="#56EEAC"/>
<path d="M165.417 189.47C164.857 189.47 164.377 189.27 163.977 188.87C163.59 188.457 163.397 187.963 163.397 187.39C163.397 186.843 163.59 186.377 163.977 185.99C164.377 185.603 164.857 185.41 165.417 185.41C165.964 185.41 166.43 185.603 166.817 185.99C167.217 186.377 167.417 186.843 167.417 187.39C167.417 187.963 167.217 188.457 166.817 188.87C166.43 189.27 165.964 189.47 165.417 189.47ZM163.397 194.77C163.397 194.223 163.59 193.757 163.977 193.37C164.377 192.983 164.857 192.79 165.417 192.79C165.964 192.79 166.43 192.983 166.817 193.37C167.217 193.757 167.417 194.223 167.417 194.77C167.417 195.343 167.217 195.837 166.817 196.25C166.43 196.65 165.964 196.85 165.417 196.85C164.857 196.85 164.377 196.65 163.977 196.25C163.59 195.837 163.397 195.343 163.397 194.77Z" fill="#022A1C"/>
<path d="M155.905 197.07C154.759 197.07 153.739 196.823 152.845 196.33C151.965 195.823 151.279 195.123 150.785 194.23C150.292 193.323 150.045 192.297 150.045 191.15C150.045 190.003 150.292 188.983 150.785 188.09C151.279 187.183 151.972 186.477 152.865 185.97C153.759 185.463 154.772 185.21 155.905 185.21C157.039 185.21 158.045 185.463 158.925 185.97C159.819 186.477 160.512 187.183 161.005 188.09C161.499 188.983 161.745 190.003 161.745 191.15C161.745 192.297 161.499 193.323 161.005 194.23C160.512 195.123 159.819 195.823 158.925 196.33C158.045 196.823 157.039 197.07 155.905 197.07ZM153.505 191.15C153.505 191.95 153.725 192.603 154.165 193.11C154.619 193.617 155.199 193.87 155.905 193.87C156.599 193.87 157.165 193.617 157.605 193.11C158.059 192.59 158.285 191.937 158.285 191.15C158.285 190.337 158.065 189.677 157.625 189.17C157.185 188.663 156.612 188.41 155.905 188.41C155.199 188.41 154.619 188.67 154.165 189.19C153.725 189.697 153.505 190.35 153.505 191.15Z" fill="#022A1C"/>
<path d="M143.54 186.97C143.54 186.117 143.58 185.223 143.66 184.29C142.593 184.37 141.073 184.41 139.1 184.41V181.13H151.52V184.41C149.547 184.41 148.027 184.37 146.96 184.29C147.04 185.223 147.08 186.117 147.08 186.97V196.73H143.54V186.97Z" fill="#022A1C"/>
<path d="M195.222 224.37C194.662 224.37 194.182 224.17 193.782 223.77C193.395 223.357 193.202 222.863 193.202 222.29C193.202 221.743 193.395 221.277 193.782 220.89C194.182 220.503 194.662 220.31 195.222 220.31C195.768 220.31 196.235 220.503 196.622 220.89C197.022 221.277 197.222 221.743 197.222 222.29C197.222 222.863 197.022 223.357 196.622 223.77C196.235 224.17 195.768 224.37 195.222 224.37ZM193.202 229.67C193.202 229.123 193.395 228.657 193.782 228.27C194.182 227.883 194.662 227.69 195.222 227.69C195.768 227.69 196.235 227.883 196.622 228.27C197.022 228.657 197.222 229.123 197.222 229.67C197.222 230.243 197.022 230.737 196.622 231.15C196.235 231.55 195.768 231.75 195.222 231.75C194.662 231.75 194.182 231.55 193.782 231.15C193.395 230.737 193.202 230.243 193.202 229.67Z" fill="#022A1C"/>
<path d="M173.732 220.43H177.032C177.032 220.483 177.032 220.677 177.032 221.01C177.032 221.33 176.999 221.677 176.932 222.05H177.072C177.432 221.423 177.906 220.943 178.492 220.61C179.079 220.277 179.686 220.11 180.312 220.11C181.006 220.11 181.632 220.283 182.192 220.63C182.752 220.977 183.172 221.483 183.452 222.15H183.592C184.072 221.417 184.612 220.897 185.212 220.59C185.812 220.27 186.426 220.11 187.052 220.11C187.746 220.11 188.392 220.29 188.992 220.65C189.592 220.997 190.072 221.51 190.432 222.19C190.806 222.857 190.992 223.643 190.992 224.55V231.63H187.652V226.03C187.652 225.51 187.626 225.07 187.572 224.71C187.519 224.337 187.372 224.01 187.132 223.73C186.892 223.45 186.526 223.31 186.032 223.31C185.486 223.31 185.012 223.517 184.612 223.93C184.226 224.33 184.032 225.03 184.032 226.03V231.63H180.692V226.01C180.692 225.49 180.666 225.05 180.612 224.69C180.559 224.33 180.412 224.01 180.172 223.73C179.932 223.45 179.566 223.31 179.072 223.31C178.526 223.31 178.052 223.517 177.652 223.93C177.266 224.33 177.072 225.03 177.072 226.03V231.63H173.732V220.43Z" fill="#022A1C"/>
<path d="M166.101 231.97C164.954 231.97 163.934 231.723 163.041 231.23C162.161 230.723 161.474 230.023 160.981 229.13C160.487 228.223 160.241 227.197 160.241 226.05C160.241 224.903 160.487 223.883 160.981 222.99C161.474 222.083 162.167 221.377 163.061 220.87C163.954 220.363 164.967 220.11 166.101 220.11C167.234 220.11 168.241 220.363 169.121 220.87C170.014 221.377 170.707 222.083 171.201 222.99C171.694 223.883 171.941 224.903 171.941 226.05C171.941 227.197 171.694 228.223 171.201 229.13C170.707 230.023 170.014 230.723 169.121 231.23C168.241 231.723 167.234 231.97 166.101 231.97ZM163.701 226.05C163.701 226.85 163.921 227.503 164.361 228.01C164.814 228.517 165.394 228.77 166.101 228.77C166.794 228.77 167.361 228.517 167.801 228.01C168.254 227.49 168.481 226.837 168.481 226.05C168.481 225.237 168.261 224.577 167.821 224.07C167.381 223.563 166.807 223.31 166.101 223.31C165.394 223.31 164.814 223.57 164.361 224.09C163.921 224.597 163.701 225.25 163.701 226.05Z" fill="#022A1C"/>
<path d="M152.17 220.43H155.47C155.47 220.497 155.47 220.703 155.47 221.05C155.47 221.383 155.436 221.763 155.37 222.19H155.55C155.856 221.563 156.256 221.063 156.75 220.69C157.243 220.303 157.836 220.11 158.53 220.11C158.863 220.11 159.203 220.17 159.55 220.29V224.05C159.15 223.917 158.696 223.85 158.19 223.85C157.376 223.85 156.77 224.057 156.37 224.47C155.983 224.87 155.743 225.337 155.65 225.87C155.556 226.39 155.51 227.003 155.51 227.71V231.63H152.17V220.43Z" fill="#022A1C"/>
<path d="M140.34 216.03H150.52V219.31C149.067 219.31 147.847 219.303 146.86 219.29C145.887 219.263 144.887 219.217 143.86 219.15L143.74 219.21C143.82 219.77 143.86 220.31 143.86 220.83C143.86 221.43 143.813 222.017 143.72 222.59L143.8 222.65C144.8 222.543 145.76 222.477 146.68 222.45C147.613 222.423 148.76 222.41 150.12 222.41V225.87C148.747 225.87 147.593 225.857 146.66 225.83C145.74 225.803 144.793 225.737 143.82 225.63L143.72 225.69C143.787 226.623 143.827 227.53 143.84 228.41C143.867 229.277 143.88 230.35 143.88 231.63H140.34V216.03Z" fill="#022A1C"/>
<path d="M309.997 299.26C308.69 299.26 307.69 298.873 306.997 298.1C306.303 297.313 305.957 296.193 305.957 294.74V287.72H309.297V293.62C309.297 294.353 309.423 294.947 309.677 295.4C309.943 295.84 310.377 296.06 310.977 296.06C311.563 296.06 312.03 295.84 312.377 295.4C312.737 294.96 312.917 294.367 312.917 293.62V287.72H316.257V295.42C316.257 296.273 316.283 296.947 316.337 297.44C316.403 297.92 316.497 298.413 316.617 298.92H313.297C313.203 298.493 313.157 298.193 313.157 298.02C313.157 297.873 313.177 297.72 313.217 297.56H313.077C312.783 298.107 312.39 298.527 311.897 298.82C311.417 299.113 310.783 299.26 309.997 299.26Z" fill="#022A1C"/>
<path d="M298.425 299.26C297.278 299.26 296.258 299.013 295.365 298.52C294.485 298.013 293.798 297.313 293.305 296.42C292.812 295.513 292.565 294.487 292.565 293.34C292.565 292.193 292.812 291.173 293.305 290.28C293.798 289.373 294.492 288.667 295.385 288.16C296.278 287.653 297.292 287.4 298.425 287.4C299.558 287.4 300.565 287.653 301.445 288.16C302.338 288.667 303.032 289.373 303.525 290.28C304.018 291.173 304.265 292.193 304.265 293.34C304.265 294.487 304.018 295.513 303.525 296.42C303.032 297.313 302.338 298.013 301.445 298.52C300.565 299.013 299.558 299.26 298.425 299.26ZM296.025 293.34C296.025 294.14 296.245 294.793 296.685 295.3C297.138 295.807 297.718 296.06 298.425 296.06C299.118 296.06 299.685 295.807 300.125 295.3C300.578 294.78 300.805 294.127 300.805 293.34C300.805 292.527 300.585 291.867 300.145 291.36C299.705 290.853 299.132 290.6 298.425 290.6C297.718 290.6 297.138 290.86 296.685 291.38C296.245 291.887 296.025 292.54 296.025 293.34Z" fill="#022A1C"/>
<path d="M284.487 299.52L280.227 287.72H283.907C284.827 290.36 285.601 292.88 286.227 295.28H286.387C286.694 294.12 287.034 292.94 287.407 291.74C287.781 290.527 288.147 289.38 288.507 288.3C288.561 288.18 288.627 287.987 288.707 287.72H292.287L286.667 303.32H283.047L284.487 299.52Z" fill="#022A1C"/>
<path d="M268.791 287.72H272.091C272.091 287.787 272.091 287.993 272.091 288.34C272.091 288.673 272.058 289.053 271.991 289.48H272.171C272.478 288.853 272.878 288.353 273.371 287.98C273.864 287.593 274.458 287.4 275.151 287.4C275.484 287.4 275.824 287.46 276.171 287.58V291.34C275.771 291.207 275.318 291.14 274.811 291.14C273.998 291.14 273.391 291.347 272.991 291.76C272.604 292.16 272.364 292.627 272.271 293.16C272.178 293.68 272.131 294.293 272.131 295V298.92H268.791V287.72Z" fill="#022A1C"/>
<path d="M261.159 299.26C260.013 299.26 258.993 299.013 258.099 298.52C257.219 298.013 256.533 297.313 256.039 296.42C255.546 295.513 255.299 294.487 255.299 293.34C255.299 292.193 255.546 291.173 256.039 290.28C256.533 289.373 257.226 288.667 258.119 288.16C259.013 287.653 260.026 287.4 261.159 287.4C262.293 287.4 263.299 287.653 264.179 288.16C265.073 288.667 265.766 289.373 266.259 290.28C266.753 291.173 266.999 292.193 266.999 293.34C266.999 294.487 266.753 295.513 266.259 296.42C265.766 297.313 265.073 298.013 264.179 298.52C263.299 299.013 262.293 299.26 261.159 299.26ZM258.759 293.34C258.759 294.14 258.979 294.793 259.419 295.3C259.873 295.807 260.453 296.06 261.159 296.06C261.853 296.06 262.419 295.807 262.859 295.3C263.313 294.78 263.539 294.127 263.539 293.34C263.539 292.527 263.319 291.867 262.879 291.36C262.439 290.853 261.866 290.6 261.159 290.6C260.453 290.6 259.873 290.86 259.419 291.38C258.979 291.887 258.759 292.54 258.759 293.34Z" fill="#022A1C"/>
<path d="M249.008 298.92C249.008 295.293 249.048 292.547 249.128 290.68C248.675 290.733 248.082 290.76 247.348 290.76V287.72C248.135 287.72 248.728 287.747 249.128 287.8C249.048 287.533 249.008 287.153 249.008 286.66C249.008 285.22 249.415 284.18 250.228 283.54C251.055 282.9 252.028 282.58 253.148 282.58C253.815 282.58 254.402 282.66 254.908 282.82V285.58C254.482 285.473 254.148 285.42 253.908 285.42C253.428 285.42 253.075 285.507 252.848 285.68C252.622 285.84 252.482 286.033 252.428 286.26C252.375 286.473 252.348 286.74 252.348 287.06C252.348 287.38 252.308 287.627 252.228 287.8C252.775 287.747 253.595 287.72 254.688 287.72V290.76C253.648 290.76 252.828 290.733 252.228 290.68C252.308 292.547 252.348 295.293 252.348 298.92H249.008Z" fill="#022A1C"/>
<path d="M234.743 299.26C233.436 299.26 232.436 298.873 231.743 298.1C231.049 297.313 230.703 296.193 230.703 294.74V287.72H234.043V293.62C234.043 294.353 234.169 294.947 234.423 295.4C234.689 295.84 235.123 296.06 235.723 296.06C236.309 296.06 236.776 295.84 237.123 295.4C237.483 294.96 237.663 294.367 237.663 293.62V287.72H241.003V295.42C241.003 296.273 241.029 296.947 241.083 297.44C241.149 297.92 241.243 298.413 241.363 298.92H238.043C237.949 298.493 237.903 298.193 237.903 298.02C237.903 297.873 237.923 297.72 237.963 297.56H237.823C237.529 298.107 237.136 298.527 236.643 298.82C236.163 299.113 235.529 299.26 234.743 299.26Z" fill="#022A1C"/>
<path d="M223.171 299.26C222.024 299.26 221.004 299.013 220.111 298.52C219.231 298.013 218.544 297.313 218.051 296.42C217.558 295.513 217.311 294.487 217.311 293.34C217.311 292.193 217.558 291.173 218.051 290.28C218.544 289.373 219.238 288.667 220.131 288.16C221.024 287.653 222.038 287.4 223.171 287.4C224.304 287.4 225.311 287.653 226.191 288.16C227.084 288.667 227.778 289.373 228.271 290.28C228.764 291.173 229.011 292.193 229.011 293.34C229.011 294.487 228.764 295.513 228.271 296.42C227.778 297.313 227.084 298.013 226.191 298.52C225.311 299.013 224.304 299.26 223.171 299.26ZM220.771 293.34C220.771 294.14 220.991 294.793 221.431 295.3C221.884 295.807 222.464 296.06 223.171 296.06C223.864 296.06 224.431 295.807 224.871 295.3C225.324 294.78 225.551 294.127 225.551 293.34C225.551 292.527 225.331 291.867 224.891 291.36C224.451 290.853 223.878 290.6 223.171 290.6C222.464 290.6 221.884 290.86 221.431 291.38C220.991 291.887 220.771 292.54 220.771 293.34Z" fill="#022A1C"/>
<path d="M209.233 299.52L204.973 287.72H208.653C209.573 290.36 210.347 292.88 210.973 295.28H211.133C211.44 294.12 211.78 292.94 212.153 291.74C212.527 290.527 212.893 289.38 213.253 288.3C213.307 288.18 213.373 287.987 213.453 287.72H217.033L211.413 303.32H207.793L209.233 299.52Z" fill="#022A1C"/>
<path d="M190.412 282.92H193.772V285.08C193.772 287.987 193.739 290.193 193.672 291.7H193.812C194.625 290.62 195.719 289.293 197.092 287.72H201.052L196.792 292.36C197.979 293.947 199.399 295.927 201.052 298.3L201.472 298.92H197.532C196.359 297.147 195.445 295.707 194.792 294.6C194.472 295.053 194.119 295.487 193.732 295.9C193.759 296.567 193.772 297.573 193.772 298.92H190.412V282.92Z" fill="#022A1C"/>
<path d="M177.58 287.72H180.88C180.88 288.373 180.847 288.913 180.78 289.34H180.92C181.307 288.687 181.787 288.2 182.36 287.88C182.947 287.56 183.573 287.4 184.24 287.4C184.947 287.4 185.593 287.573 186.18 287.92C186.767 288.253 187.227 288.753 187.56 289.42C187.907 290.087 188.08 290.893 188.08 291.84V298.92H184.74V293.32C184.74 292.827 184.707 292.393 184.64 292.02C184.587 291.647 184.427 291.32 184.16 291.04C183.907 290.747 183.513 290.6 182.98 290.6C182.407 290.6 181.92 290.807 181.52 291.22C181.12 291.62 180.92 292.32 180.92 293.32V298.92H177.58V287.72Z" fill="#022A1C"/>
<path d="M168.983 299.26C168.316 299.26 167.689 299.133 167.103 298.88C166.516 298.627 166.043 298.247 165.683 297.74C165.323 297.22 165.143 296.593 165.143 295.86C165.143 294.9 165.449 294.167 166.063 293.66C166.689 293.14 167.536 292.767 168.603 292.54C169.669 292.313 170.389 292.153 170.763 292.06C171.149 291.953 171.423 291.84 171.583 291.72C171.756 291.587 171.843 291.407 171.843 291.18C171.843 290.847 171.716 290.587 171.463 290.4C171.209 290.2 170.869 290.1 170.443 290.1C170.016 290.1 169.636 290.227 169.303 290.48C168.969 290.72 168.723 291.113 168.563 291.66L165.463 290.62C165.796 289.487 166.416 288.667 167.323 288.16C168.243 287.653 169.323 287.4 170.563 287.4C172.069 287.4 173.216 287.753 174.003 288.46C174.803 289.153 175.203 290.153 175.203 291.46V295.42C175.203 296.26 175.229 296.933 175.283 297.44C175.349 297.933 175.443 298.427 175.563 298.92H172.243C172.149 298.667 172.103 298.413 172.103 298.16C172.103 297.987 172.123 297.793 172.163 297.58H172.023C171.756 298.127 171.343 298.547 170.783 298.84C170.236 299.12 169.636 299.26 168.983 299.26ZM168.803 295.76C168.803 296.08 168.909 296.32 169.123 296.48C169.349 296.64 169.643 296.72 170.003 296.72C170.563 296.72 171.009 296.533 171.343 296.16C171.689 295.787 171.863 295.333 171.863 294.8V294.12L170.383 294.5L169.843 294.64C169.149 294.827 168.803 295.2 168.803 295.76Z" fill="#022A1C"/>
<path d="M152.971 282.92H156.311C156.311 285.76 156.271 287.9 156.191 289.34H156.331C156.717 288.687 157.197 288.2 157.771 287.88C158.344 287.56 158.964 287.4 159.631 287.4C160.337 287.4 160.984 287.573 161.571 287.92C162.157 288.253 162.617 288.753 162.951 289.42C163.297 290.087 163.471 290.893 163.471 291.84V298.92H160.131V293.32C160.131 292.827 160.097 292.393 160.031 292.02C159.977 291.647 159.817 291.32 159.551 291.04C159.297 290.747 158.904 290.6 158.371 290.6C157.797 290.6 157.311 290.807 156.911 291.22C156.511 291.62 156.311 292.32 156.311 293.32V298.92H152.971V282.92Z" fill="#022A1C"/>
<path d="M143.54 289.16C143.54 288.307 143.58 287.413 143.66 286.48C142.593 286.56 141.073 286.6 139.1 286.6V283.32H151.52V286.6C149.547 286.6 148.027 286.56 146.96 286.48C147.04 287.413 147.08 288.307 147.08 289.16V298.92H143.54V289.16Z" fill="#022A1C"/>
<path d="M234.455 309.38V307.32H237.995V309.38L237.135 317.64H235.315L234.455 309.38ZM234.215 320.98C234.215 320.433 234.408 319.967 234.795 319.58C235.195 319.193 235.675 319 236.235 319C236.755 319 237.215 319.2 237.615 319.6C238.028 319.987 238.235 320.447 238.235 320.98C238.235 321.553 238.035 322.047 237.635 322.46C237.248 322.86 236.782 323.06 236.235 323.06C235.675 323.06 235.195 322.86 234.795 322.46C234.408 322.047 234.215 321.553 234.215 320.98Z" fill="#022A1C"/>
<path d="M227.372 323.26C226.252 323.26 225.238 323.02 224.332 322.54C223.438 322.047 222.732 321.36 222.212 320.48C221.705 319.587 221.452 318.553 221.452 317.38C221.452 316.247 221.692 315.227 222.172 314.32C222.652 313.413 223.318 312.7 224.172 312.18C225.038 311.66 226.018 311.4 227.112 311.4C228.138 311.4 229.065 311.64 229.892 312.12C230.732 312.587 231.392 313.28 231.872 314.2C232.365 315.12 232.612 316.22 232.612 317.5V318.28H224.772C224.918 318.933 225.225 319.427 225.692 319.76C226.172 320.093 226.718 320.26 227.332 320.26C227.785 320.26 228.198 320.147 228.572 319.92C228.958 319.693 229.258 319.34 229.472 318.86L232.612 320.14C232.238 321.033 231.585 321.78 230.652 322.38C229.732 322.967 228.638 323.26 227.372 323.26ZM229.272 316.1C229.152 315.473 228.898 315.007 228.512 314.7C228.138 314.393 227.665 314.24 227.092 314.24C226.532 314.24 226.065 314.407 225.692 314.74C225.332 315.073 225.078 315.527 224.932 316.1H229.272Z" fill="#022A1C"/>
<path d="M215.704 323.26C214.384 323.26 213.284 322.98 212.404 322.42C211.537 321.847 210.977 321.073 210.724 320.1L213.824 319.1C214.211 320.06 214.824 320.54 215.664 320.54C215.971 320.54 216.224 320.48 216.424 320.36C216.637 320.24 216.744 320.06 216.744 319.82C216.744 319.553 216.631 319.353 216.404 319.22C216.177 319.073 215.857 318.933 215.444 318.8L214.204 318.42C212.231 317.82 211.244 316.7 211.244 315.06C211.244 314.34 211.424 313.707 211.784 313.16C212.157 312.6 212.677 312.167 213.344 311.86C214.011 311.553 214.777 311.4 215.644 311.4C216.791 311.4 217.751 311.667 218.524 312.2C219.297 312.72 219.804 313.407 220.044 314.26L216.984 315.26C216.704 314.473 216.237 314.08 215.584 314.08C215.291 314.08 215.051 314.153 214.864 314.3C214.677 314.433 214.584 314.613 214.584 314.84C214.584 315.107 214.731 315.313 215.024 315.46C215.317 315.607 215.751 315.767 216.324 315.94L217.104 316.16C217.664 316.32 218.157 316.507 218.584 316.72C219.024 316.92 219.417 317.253 219.764 317.72C220.124 318.173 220.304 318.78 220.304 319.54C220.304 320.7 219.891 321.613 219.064 322.28C218.237 322.933 217.117 323.26 215.704 323.26Z" fill="#022A1C"/>
<path d="M202.986 323.26C202.32 323.26 201.693 323.133 201.106 322.88C200.52 322.627 200.046 322.247 199.686 321.74C199.326 321.22 199.146 320.593 199.146 319.86C199.146 318.9 199.453 318.167 200.066 317.66C200.693 317.14 201.54 316.767 202.606 316.54C203.673 316.313 204.393 316.153 204.766 316.06C205.153 315.953 205.426 315.84 205.586 315.72C205.76 315.587 205.846 315.407 205.846 315.18C205.846 314.847 205.72 314.587 205.466 314.4C205.213 314.2 204.873 314.1 204.446 314.1C204.02 314.1 203.64 314.227 203.306 314.48C202.973 314.72 202.726 315.113 202.566 315.66L199.466 314.62C199.8 313.487 200.42 312.667 201.326 312.16C202.246 311.653 203.326 311.4 204.566 311.4C206.073 311.4 207.22 311.753 208.006 312.46C208.806 313.153 209.206 314.153 209.206 315.46V319.42C209.206 320.26 209.233 320.933 209.286 321.44C209.353 321.933 209.446 322.427 209.566 322.92H206.246C206.153 322.667 206.106 322.413 206.106 322.16C206.106 321.987 206.126 321.793 206.166 321.58H206.026C205.76 322.127 205.346 322.547 204.786 322.84C204.24 323.12 203.64 323.26 202.986 323.26ZM202.806 319.76C202.806 320.08 202.913 320.32 203.126 320.48C203.353 320.64 203.646 320.72 204.006 320.72C204.566 320.72 205.013 320.533 205.346 320.16C205.693 319.787 205.866 319.333 205.866 318.8V318.12L204.386 318.5L203.846 318.64C203.153 318.827 202.806 319.2 202.806 319.76Z" fill="#022A1C"/>
<path d="M186.974 306.92H190.314C190.314 309.76 190.274 311.9 190.194 313.34H190.334C190.721 312.687 191.201 312.2 191.774 311.88C192.348 311.56 192.968 311.4 193.634 311.4C194.341 311.4 194.988 311.573 195.574 311.92C196.161 312.253 196.621 312.753 196.954 313.42C197.301 314.087 197.474 314.893 197.474 315.84V322.92H194.134V317.32C194.134 316.827 194.101 316.393 194.034 316.02C193.981 315.647 193.821 315.32 193.554 315.04C193.301 314.747 192.908 314.6 192.374 314.6C191.801 314.6 191.314 314.807 190.914 315.22C190.514 315.62 190.314 316.32 190.314 317.32V322.92H186.974V306.92Z" fill="#022A1C"/>
<path d="M180.028 323.26C178.921 323.26 177.915 323.02 177.008 322.54C176.115 322.06 175.408 321.373 174.888 320.48C174.368 319.587 174.108 318.54 174.108 317.34C174.108 316.14 174.361 315.093 174.868 314.2C175.375 313.293 176.068 312.6 176.948 312.12C177.828 311.64 178.815 311.4 179.908 311.4C181.188 311.4 182.308 311.727 183.268 312.38C184.228 313.02 184.901 313.893 185.288 315L182.168 316.28C181.981 315.693 181.681 315.267 181.268 315C180.868 314.733 180.415 314.6 179.908 314.6C179.215 314.6 178.648 314.86 178.208 315.38C177.768 315.9 177.548 316.547 177.548 317.32C177.548 318.147 177.788 318.813 178.268 319.32C178.761 319.813 179.348 320.06 180.028 320.06C180.521 320.06 180.975 319.927 181.388 319.66C181.815 319.38 182.135 318.953 182.348 318.38L185.488 319.66C185.101 320.767 184.421 321.647 183.448 322.3C182.475 322.94 181.335 323.26 180.028 323.26Z" fill="#022A1C"/>
<path d="M166.037 311.72H169.337C169.337 311.787 169.337 311.993 169.337 312.34C169.337 312.673 169.304 313.053 169.237 313.48H169.417C169.724 312.853 170.124 312.353 170.617 311.98C171.11 311.593 171.704 311.4 172.397 311.4C172.73 311.4 173.07 311.46 173.417 311.58V315.34C173.017 315.207 172.564 315.14 172.057 315.14C171.244 315.14 170.637 315.347 170.237 315.76C169.85 316.16 169.61 316.627 169.517 317.16C169.424 317.68 169.377 318.293 169.377 319V322.92H166.037V311.72Z" fill="#022A1C"/>
<path d="M157.321 323.26C156.014 323.26 155.014 322.873 154.321 322.1C153.627 321.313 153.281 320.193 153.281 318.74V311.72H156.621V317.62C156.621 318.353 156.747 318.947 157.001 319.4C157.267 319.84 157.701 320.06 158.301 320.06C158.887 320.06 159.354 319.84 159.701 319.4C160.061 318.96 160.241 318.367 160.241 317.62V311.72H163.581V319.42C163.581 320.273 163.607 320.947 163.661 321.44C163.727 321.92 163.821 322.413 163.941 322.92H160.621C160.527 322.493 160.481 322.193 160.481 322.02C160.481 321.873 160.501 321.72 160.541 321.56H160.401C160.107 322.107 159.714 322.527 159.221 322.82C158.741 323.113 158.107 323.26 157.321 323.26Z" fill="#022A1C"/>
<path d="M140.08 311.72H143.38C143.38 311.773 143.38 311.96 143.38 312.28C143.38 312.587 143.347 312.953 143.28 313.38H143.42C143.9 312.66 144.407 312.153 144.94 311.86C145.487 311.553 146.1 311.4 146.78 311.4C147.767 311.4 148.62 311.667 149.34 312.2C150.073 312.72 150.627 313.427 151 314.32C151.373 315.213 151.56 316.193 151.56 317.26C151.56 318.487 151.32 319.553 150.84 320.46C150.373 321.367 149.753 322.06 148.98 322.54C148.22 323.02 147.4 323.26 146.52 323.26C145.76 323.26 145.113 323.093 144.58 322.76C144.06 322.413 143.653 321.98 143.36 321.46C143.4 322.38 143.42 323.7 143.42 325.42V327.32H140.08V311.72ZM143.34 317.34C143.34 318.14 143.56 318.793 144 319.3C144.453 319.807 145.033 320.06 145.74 320.06C146.433 320.06 147 319.807 147.44 319.3C147.893 318.78 148.12 318.127 148.12 317.34C148.12 316.54 147.893 315.887 147.44 315.38C147 314.86 146.433 314.6 145.74 314.6C145.033 314.6 144.453 314.86 144 315.38C143.56 315.887 143.34 316.54 143.34 317.34Z" fill="#022A1C"/>
<g filter="url(#filter2_d_11400_2987)">
<path d="M609.4 132.22H287.19C271.903 132.22 259.51 144.613 259.51 159.9V570.16C259.51 585.447 271.903 597.84 287.19 597.84H609.4C624.687 597.84 637.08 585.447 637.08 570.16V159.9C637.08 144.613 624.687 132.22 609.4 132.22Z" fill="white"/>
</g>
<path d="M382.14 369.82H332.12V419.84H382.14V369.82Z" fill="#FFCE00"/>
<path d="M357.13 369.82H332.12V419.84H357.13V369.82Z" fill="#FCCC17"/>
<path fill-rule="evenodd" clip-rule="evenodd" d="M361.24 390.95H374.63L363.84 398.62L357.17 403.32L346.33 410.99L350.45 398.62L339.61 390.95H353L357.12 378.58L361.24 390.95ZM364.74 401.48L357.13 403.37L367.92 411.09L364.74 401.48Z" fill="white"/>
<path d="M489.69 369.82H439.67V419.84H489.69V369.82Z" fill="#FFCE00"/>
<path d="M464.68 369.82H439.67V419.84H464.68V369.82Z" fill="#FCCC17"/>
<path fill-rule="evenodd" clip-rule="evenodd" d="M468.8 390.95H482.19L471.4 398.62L464.73 403.32L453.89 410.99L458.01 398.62L447.17 390.95H460.56L464.68 378.58L468.8 390.95ZM472.29 401.48L464.68 403.37L475.47 411.09L472.29 401.48Z" fill="white"/>
<path d="M435.91 369.82H385.89V419.84H435.91V369.82Z" fill="#FFCE00"/>
<path d="M410.9 369.82H385.89V419.84H410.9V369.82Z" fill="#FCCC17"/>
<path fill-rule="evenodd" clip-rule="evenodd" d="M415.02 390.95H428.41L417.62 398.62L410.95 403.32L400.11 410.99L404.23 398.62L393.39 390.95H406.78L410.9 378.58L415.02 390.95ZM418.51 401.48L410.9 403.37L421.69 411.09L418.51 401.48Z" fill="white"/>
<path d="M543.47 369.82H493.45V419.84H543.47V369.82Z" fill="#DCDCE6"/>
<path d="M518.46 369.82H493.45V419.84H518.46V369.82Z" fill="#DCDCE6"/>
<path fill-rule="evenodd" clip-rule="evenodd" d="M522.57 390.95H535.96L525.17 398.62L518.5 403.32L507.66 410.99L511.78 398.62L500.94 390.95H514.33L518.45 378.58L522.57 390.95ZM526.07 401.48L518.46 403.37L529.25 411.09L526.07 401.48Z" fill="white"/>
<path d="M597.24 369.82H547.22V419.84H597.24V369.82Z" fill="#DCDCE6"/>
<path d="M572.23 369.82H547.22V419.84H572.23V369.82Z" fill="#DCDCE6"/>
<path fill-rule="evenodd" clip-rule="evenodd" d="M576.35 390.95H589.74L578.95 398.62L572.28 403.32L561.44 410.99L565.56 398.62L554.72 390.95H568.11L572.23 378.58L576.35 390.95ZM579.84 401.48L572.23 403.37L583.02 411.09L579.84 401.48Z" fill="white"/>
<path d="M382.14 296.81H332.12V346.83H382.14V296.81Z" fill="#73CF11"/>
<path d="M357.13 296.81H332.12V346.83H357.13V296.81Z" fill="#71CD1B"/>
<path fill-rule="evenodd" clip-rule="evenodd" d="M361.24 317.93H374.63L363.84 325.6L357.17 330.3L346.33 337.97L350.45 325.6L339.61 317.93H353L357.12 305.56L361.24 317.93ZM364.74 328.47L357.13 330.36L367.92 338.08L364.74 328.47Z" fill="white"/>
<path d="M489.69 296.81H439.67V346.83H489.69V296.81Z" fill="#73CF11"/>
<path d="M464.68 296.81H439.67V346.83H464.68V296.81Z" fill="#71CD1B"/>
<path fill-rule="evenodd" clip-rule="evenodd" d="M468.8 317.93H482.19L471.4 325.6L464.73 330.3L453.89 337.97L458.01 325.6L447.17 317.93H460.56L464.68 305.56L468.8 317.93ZM472.29 328.47L464.68 330.36L475.47 338.08L472.29 328.47Z" fill="white"/>
<path d="M435.91 296.81H385.89V346.83H435.91V296.81Z" fill="#73CF11"/>
<path d="M410.9 296.81H385.89V346.83H410.9V296.81Z" fill="#71CD1B"/>
<path fill-rule="evenodd" clip-rule="evenodd" d="M415.02 317.93H428.41L417.62 325.6L410.95 330.3L400.11 337.97L404.23 325.6L393.39 317.93H406.78L410.9 305.56L415.02 317.93ZM418.51 328.47L410.9 330.36L421.69 338.08L418.51 328.47Z" fill="white"/>
<path d="M543.47 296.81H493.45V346.83H543.47V296.81Z" fill="#73CF11"/>
<path d="M518.46 296.81H493.45V346.83H518.46V296.81Z" fill="#71CD1B"/>
<path fill-rule="evenodd" clip-rule="evenodd" d="M522.57 317.93H535.96L525.17 325.6L518.5 330.3L507.66 337.97L511.78 325.6L500.94 317.93H514.33L518.45 305.56L522.57 317.93ZM526.07 328.47L518.46 330.36L529.25 338.08L526.07 328.47Z" fill="white"/>
<path d="M597.24 296.81H547.22V346.83H597.24V296.81Z" fill="#DCDCE6"/>
<path d="M572.23 296.81H547.22V346.83H572.23V296.81Z" fill="#DCDCE6"/>
<path fill-rule="evenodd" clip-rule="evenodd" d="M576.35 317.93H589.74L578.95 325.6L572.28 330.3L561.44 337.97L565.56 325.6L554.72 317.93H568.11L572.23 305.56L576.35 317.93ZM579.84 328.47L572.23 330.36L583.02 338.08L579.84 328.47Z" fill="white"/>
<path d="M382.14 223.79H332.12V273.81H382.14V223.79Z" fill="#00B67A"/>
<path d="M357.13 223.79H332.12V273.81H357.13V223.79Z" fill="#00B47B"/>
<path fill-rule="evenodd" clip-rule="evenodd" d="M361.24 244.92H374.63L363.84 252.59L357.17 257.29L346.33 264.96L350.45 252.59L339.61 244.92H353L357.12 232.55L361.24 244.92ZM364.74 255.45L357.13 257.34L367.92 265.06L364.74 255.45Z" fill="white"/>
<path d="M489.69 223.79H439.67V273.81H489.69V223.79Z" fill="#00B67A"/>
<path d="M464.68 223.79H439.67V273.81H464.68V223.79Z" fill="#00B47B"/>
<path fill-rule="evenodd" clip-rule="evenodd" d="M468.8 244.92H482.19L471.4 252.59L464.73 257.29L453.89 264.96L458.01 252.59L447.17 244.92H460.56L464.68 232.55L468.8 244.92ZM472.29 255.45L464.68 257.34L475.47 265.06L472.29 255.45Z" fill="white"/>
<path d="M435.91 223.79H385.89V273.81H435.91V223.79Z" fill="#00B67A"/>
<path d="M410.9 223.79H385.89V273.81H410.9V223.79Z" fill="#00B47B"/>
<path fill-rule="evenodd" clip-rule="evenodd" d="M415.02 244.92H428.41L417.62 252.59L410.95 257.29L400.11 264.96L404.23 252.59L393.39 244.92H406.78L410.9 232.55L415.02 244.92ZM418.51 255.45L410.9 257.34L421.69 265.06L418.51 255.45Z" fill="white"/>
<path d="M543.47 223.79H493.45V273.81H543.47V223.79Z" fill="#00B67A"/>
<path d="M518.46 223.79H493.45V273.81H518.46V223.79Z" fill="#00B47B"/>
<path fill-rule="evenodd" clip-rule="evenodd" d="M522.57 244.92H535.96L525.17 252.59L518.5 257.29L507.66 264.96L511.78 252.59L500.94 244.92H514.33L518.45 232.55L522.57 244.92ZM526.07 255.45L518.46 257.34L529.25 265.06L526.07 255.45Z" fill="white"/>
<path d="M597.24 223.79H547.22V273.81H597.24V223.79Z" fill="#00B67A"/>
<path d="M572.23 223.79H547.22V273.81H572.23V223.79Z" fill="#00B47B"/>
<path fill-rule="evenodd" clip-rule="evenodd" d="M576.35 244.92H589.74L578.95 252.59L572.28 257.29L561.44 264.96L565.56 252.59L554.72 244.92H568.11L572.23 232.55L576.35 244.92ZM579.84 255.45L572.23 257.34L583.02 265.06L579.84 255.45Z" fill="white"/>
<path d="M382.14 442.84H332.12V492.86H382.14V442.84Z" fill="#FF8622"/>
<path d="M357.13 442.84H332.12V492.86H357.13V442.84Z" fill="#FD8428"/>
<path fill-rule="evenodd" clip-rule="evenodd" d="M361.24 463.97H374.63L363.84 471.64L357.17 476.34L346.33 484.01L350.45 471.64L339.61 463.97H353L357.12 451.6L361.24 463.97ZM364.74 474.5L357.13 476.39L367.92 484.11L364.74 474.5Z" fill="white"/>
<path d="M489.69 442.84H439.67V492.86H489.69V442.84Z" fill="#DCDCE6"/>
<path d="M464.68 442.84H439.67V492.86H464.68V442.84Z" fill="#DCDCE6"/>
<path fill-rule="evenodd" clip-rule="evenodd" d="M468.8 463.97H482.19L471.4 471.64L464.73 476.34L453.89 484.01L458.01 471.64L447.17 463.97H460.56L464.68 451.6L468.8 463.97ZM472.29 474.5L464.68 476.39L475.47 484.11L472.29 474.5Z" fill="white"/>
<path d="M435.91 442.84H385.89V492.86H435.91V442.84Z" fill="#FF8622"/>
<path d="M410.9 442.84H385.89V492.86H410.9V442.84Z" fill="#FD8428"/>
<path fill-rule="evenodd" clip-rule="evenodd" d="M415.02 463.97H428.41L417.62 471.64L410.95 476.34L400.11 484.01L404.23 471.64L393.39 463.97H406.78L410.9 451.6L415.02 463.97ZM418.51 474.5L410.9 476.39L421.69 484.11L418.51 474.5Z" fill="white"/>
<path d="M543.47 442.84H493.45V492.86H543.47V442.84Z" fill="#DCDCE6"/>
<path d="M518.46 442.84H493.45V492.86H518.46V442.84Z" fill="#DCDCE6"/>
<path fill-rule="evenodd" clip-rule="evenodd" d="M522.57 463.97H535.96L525.17 471.64L518.5 476.34L507.66 484.01L511.78 471.64L500.94 463.97H514.33L518.45 451.6L522.57 463.97ZM526.07 474.5L518.46 476.39L529.25 484.11L526.07 474.5Z" fill="white"/>
<path d="M597.24 442.84H547.22V492.86H597.24V442.84Z" fill="#DCDCE6"/>
<path d="M572.23 442.84H547.22V492.86H572.23V442.84Z" fill="#DCDCE6"/>
<path fill-rule="evenodd" clip-rule="evenodd" d="M576.35 463.97H589.74L578.95 471.64L572.28 476.34L561.44 484.01L565.56 471.64L554.72 463.97H568.11L572.23 451.6L576.35 463.97ZM579.84 474.5L572.23 476.39L583.02 484.11L579.84 474.5Z" fill="white"/>
<path d="M382.14 515.85H332.12V565.87H382.14V515.85Z" fill="#FF3722"/>
<path d="M357.13 515.85H332.12V565.87H357.13V515.85Z" fill="#FD3527"/>
<path fill-rule="evenodd" clip-rule="evenodd" d="M361.24 536.98H374.63L363.84 544.65L357.17 549.35L346.33 557.02L350.45 544.65L339.61 536.98H353L357.12 524.61L361.24 536.98ZM364.74 547.51L357.13 549.4L367.92 557.12L364.74 547.51Z" fill="white"/>
<path d="M489.69 515.85H439.67V565.87H489.69V515.85Z" fill="#DCDCE6"/>
<path d="M464.68 515.85H439.67V565.87H464.68V515.85Z" fill="#DCDCE6"/>
<path fill-rule="evenodd" clip-rule="evenodd" d="M468.8 536.98H482.19L471.4 544.65L464.73 549.35L453.89 557.02L458.01 544.65L447.17 536.98H460.56L464.68 524.61L468.8 536.98ZM472.29 547.51L464.68 549.4L475.47 557.12L472.29 547.51Z" fill="white"/>
<path d="M435.91 515.85H385.89V565.87H435.91V515.85Z" fill="#DCDCE6"/>
<path d="M410.9 515.85H385.89V565.87H410.9V515.85Z" fill="#DCDCE6"/>
<path fill-rule="evenodd" clip-rule="evenodd" d="M415.02 536.98H428.41L417.62 544.65L410.95 549.35L400.11 557.02L404.23 544.65L393.39 536.98H406.78L410.9 524.61L415.02 536.98ZM418.51 547.51L410.9 549.4L421.69 557.12L418.51 547.51Z" fill="white"/>
<path d="M543.47 515.85H493.45V565.87H543.47V515.85Z" fill="#DCDCE6"/>
<path d="M518.46 515.85H493.45V565.87H518.46V515.85Z" fill="#DCDCE6"/>
<path fill-rule="evenodd" clip-rule="evenodd" d="M522.57 536.98H535.96L525.17 544.65L518.5 549.35L507.66 557.02L511.78 544.65L500.94 536.98H514.33L518.45 524.61L522.57 536.98ZM526.07 547.51L518.46 549.4L529.25 557.12L526.07 547.51Z" fill="white"/>
<path d="M597.24 515.85H547.22V565.87H597.24V515.85Z" fill="#DCDCE6"/>
<path d="M572.23 515.85H547.22V565.87H572.23V515.85Z" fill="#DCDCE6"/>
<path fill-rule="evenodd" clip-rule="evenodd" d="M576.35 536.98H589.74L578.95 544.65L572.28 549.35L561.44 557.02L565.56 544.65L554.72 536.98H568.11L572.23 524.61L576.35 536.98ZM579.84 547.51L572.23 549.4L583.02 557.12L579.84 547.51Z" fill="white"/>
<path opacity="0.3" d="M289.94 254.98C293.905 254.98 297.12 251.765 297.12 247.8C297.12 243.835 293.905 240.62 289.94 240.62C285.975 240.62 282.76 243.835 282.76 247.8C282.76 251.765 285.975 254.98 289.94 254.98Z" stroke="#1C1C1C" stroke-miterlimit="10"/>
<path opacity="0.3" d="M289.94 330C293.905 330 297.12 326.785 297.12 322.82C297.12 318.855 293.905 315.64 289.94 315.64C285.975 315.64 282.76 318.855 282.76 322.82C282.76 326.785 285.975 330 289.94 330Z" stroke="#1C1C1C" stroke-miterlimit="10"/>
<path opacity="0.3" d="M289.94 403.02C293.905 403.02 297.12 399.805 297.12 395.84C297.12 391.875 293.905 388.66 289.94 388.66C285.975 388.66 282.76 391.875 282.76 395.84C282.76 399.805 285.975 403.02 289.94 403.02Z" stroke="#1C1C1C" stroke-miterlimit="10"/>
<path opacity="0.3" d="M289.94 475.03C293.905 475.03 297.12 471.815 297.12 467.85C297.12 463.885 293.905 460.67 289.94 460.67C285.975 460.67 282.76 463.885 282.76 467.85C282.76 471.815 285.975 475.03 289.94 475.03Z" stroke="#1C1C1C" stroke-miterlimit="10"/>
<path opacity="0.3" d="M289.94 547.05C293.905 547.05 297.12 543.835 297.12 539.87C297.12 535.905 293.905 532.69 289.94 532.69C285.975 532.69 282.76 535.905 282.76 539.87C282.76 543.835 285.975 547.05 289.94 547.05Z" stroke="#1C1C1C" stroke-miterlimit="10"/>
<path d="M592.091 185.83C591.957 185.163 591.891 184.483 591.891 183.79C591.891 182.403 592.318 181.23 593.171 180.27C594.024 179.283 595.264 178.337 596.891 177.43C597.638 177.003 598.211 176.657 598.611 176.39C599.038 176.123 599.411 175.75 599.731 175.27C600.078 174.79 600.251 174.217 600.251 173.55C600.251 172.59 599.877 171.803 599.131 171.19C598.411 170.577 597.464 170.27 596.291 170.27C594.771 170.27 593.584 170.763 592.731 171.75C591.904 172.737 591.491 174.003 591.491 175.55V175.99L585.091 174.87V174.55C585.091 172.31 585.611 170.377 586.651 168.75C587.717 167.097 589.144 165.843 590.931 164.99C592.717 164.137 594.677 163.71 596.811 163.71C598.811 163.71 600.651 164.083 602.331 164.83C604.011 165.577 605.344 166.657 606.331 168.07C607.344 169.457 607.851 171.07 607.851 172.91C607.851 174.723 607.424 176.19 606.571 177.31C605.717 178.403 604.584 179.43 603.171 180.39C603.011 180.497 602.517 180.817 601.691 181.35C600.891 181.883 600.277 182.43 599.851 182.99C599.451 183.523 599.251 184.057 599.251 184.59C599.251 185.017 599.331 185.43 599.491 185.83H592.091ZM591.811 191.71C591.811 190.617 592.197 189.683 592.971 188.91C593.771 188.11 594.717 187.71 595.811 187.71C596.904 187.71 597.851 188.11 598.651 188.91C599.451 189.683 599.851 190.643 599.851 191.79C599.851 192.91 599.464 193.87 598.691 194.67C597.944 195.443 597.011 195.83 595.891 195.83C594.771 195.83 593.811 195.43 593.011 194.63C592.211 193.803 591.811 192.83 591.811 191.71Z" fill="black"/>
<path d="M571.148 196.23C568.854 196.23 566.814 195.737 565.028 194.75C563.268 193.737 561.894 192.337 560.908 190.55C559.921 188.737 559.428 186.683 559.428 184.39C559.428 182.097 559.921 180.057 560.908 178.27C561.894 176.457 563.281 175.043 565.068 174.03C566.854 173.017 568.881 172.51 571.148 172.51C573.414 172.51 575.428 173.017 577.188 174.03C578.974 175.043 580.361 176.457 581.348 178.27C582.334 180.057 582.828 182.097 582.828 184.39C582.828 186.683 582.334 188.737 581.348 190.55C580.361 192.337 578.974 193.737 577.188 194.75C575.428 195.737 573.414 196.23 571.148 196.23ZM566.348 184.39C566.348 185.99 566.788 187.297 567.668 188.31C568.574 189.323 569.734 189.83 571.148 189.83C572.534 189.83 573.668 189.323 574.548 188.31C575.454 187.27 575.908 185.963 575.908 184.39C575.908 182.763 575.468 181.443 574.588 180.43C573.708 179.417 572.561 178.91 571.148 178.91C569.734 178.91 568.574 179.43 567.668 180.47C566.788 181.483 566.348 182.79 566.348 184.39Z" fill="black"/>
<path d="M542.908 196.23C540.855 196.23 539.068 195.723 537.548 194.71C536.028 193.67 534.855 192.257 534.028 190.47C533.228 188.657 532.828 186.603 532.828 184.31C532.828 181.883 533.268 179.79 534.148 178.03C535.055 176.243 536.268 174.883 537.788 173.95C539.308 172.99 540.988 172.51 542.828 172.51C545.681 172.51 547.748 173.683 549.028 176.03H549.308C549.175 173.043 549.108 168.883 549.108 163.55H555.788V188.55C555.788 190.257 555.841 191.603 555.948 192.59C556.081 193.55 556.268 194.537 556.508 195.55H549.908C549.668 194.43 549.575 193.59 549.628 193.03H549.348C548.041 195.163 545.895 196.23 542.908 196.23ZM539.708 184.31C539.708 185.883 540.148 187.19 541.028 188.23C541.908 189.27 543.068 189.79 544.508 189.79C545.921 189.79 547.068 189.27 547.948 188.23C548.828 187.19 549.268 185.883 549.268 184.31C549.268 182.71 548.815 181.403 547.908 180.39C547.028 179.377 545.881 178.87 544.468 178.87C543.081 178.87 541.935 179.377 541.028 180.39C540.148 181.403 539.708 182.71 539.708 184.31Z" fill="black"/>
<path d="M510.643 196.23C508.403 196.23 506.376 195.75 504.563 194.79C502.776 193.803 501.363 192.43 500.323 190.67C499.309 188.883 498.803 186.817 498.803 184.47C498.803 182.203 499.283 180.163 500.243 178.35C501.203 176.537 502.536 175.11 504.243 174.07C505.976 173.03 507.936 172.51 510.123 172.51C512.176 172.51 514.029 172.99 515.683 173.95C517.363 174.883 518.683 176.27 519.643 178.11C520.629 179.95 521.123 182.15 521.123 184.71V186.27H505.443C505.736 187.577 506.349 188.563 507.283 189.23C508.243 189.897 509.336 190.23 510.563 190.23C511.469 190.23 512.296 190.003 513.043 189.55C513.816 189.097 514.416 188.39 514.843 187.43L521.123 189.99C520.376 191.777 519.069 193.27 517.203 194.47C515.363 195.643 513.176 196.23 510.643 196.23ZM514.443 181.91C514.203 180.657 513.696 179.723 512.923 179.11C512.176 178.497 511.229 178.19 510.083 178.19C508.963 178.19 508.029 178.523 507.283 179.19C506.563 179.857 506.056 180.763 505.763 181.91H514.443Z" fill="black"/>
<path d="M460.183 173.15H467.823C469.503 179.177 470.716 183.91 471.463 187.35H471.903C472.863 183.857 474.303 179.123 476.223 173.15H481.983C483.85 179.123 485.25 183.857 486.183 187.35H486.583C487.036 185.35 487.57 183.203 488.183 180.91C488.823 178.59 489.45 176.363 490.063 174.23L490.383 173.15H497.983L490.863 195.55H482.623C481.21 190.67 480.103 186.537 479.303 183.15H478.943C478.036 186.59 476.81 190.723 475.263 195.55H467.343L460.183 173.15Z" fill="black"/>
<path d="M436.228 196.23C434.175 196.23 432.388 195.723 430.868 194.71C429.348 193.67 428.175 192.257 427.348 190.47C426.548 188.657 426.148 186.603 426.148 184.31C426.148 181.883 426.588 179.79 427.468 178.03C428.375 176.243 429.588 174.883 431.108 173.95C432.628 172.99 434.308 172.51 436.148 172.51C439.002 172.51 441.068 173.683 442.348 176.03H442.628C442.495 173.043 442.428 168.883 442.428 163.55H449.108V188.55C449.108 190.257 449.162 191.603 449.268 192.59C449.402 193.55 449.588 194.537 449.828 195.55H443.228C442.988 194.43 442.895 193.59 442.948 193.03H442.668C441.362 195.163 439.215 196.23 436.228 196.23ZM433.028 184.31C433.028 185.883 433.468 187.19 434.348 188.23C435.228 189.27 436.388 189.79 437.828 189.79C439.242 189.79 440.388 189.27 441.268 188.23C442.148 187.19 442.588 185.883 442.588 184.31C442.588 182.71 442.135 181.403 441.228 180.39C440.348 179.377 439.202 178.87 437.788 178.87C436.402 178.87 435.255 179.377 434.348 180.39C433.468 181.403 433.028 182.71 433.028 184.31Z" fill="black"/>
<path d="M415.786 173.15H422.466V195.55H415.786V173.15ZM419.186 170.99C418.066 170.99 417.119 170.603 416.346 169.83C415.599 169.057 415.226 168.11 415.226 166.99C415.226 165.923 415.599 165.017 416.346 164.27C417.119 163.523 418.066 163.15 419.186 163.15C420.279 163.15 421.199 163.537 421.946 164.31C422.692 165.057 423.066 165.95 423.066 166.99C423.066 168.11 422.692 169.057 421.946 169.83C421.199 170.603 420.279 170.99 419.186 170.99Z" fill="black"/>
<path d="M397.986 196.23C395.933 196.23 394.146 195.723 392.626 194.71C391.106 193.67 389.933 192.257 389.106 190.47C388.306 188.657 387.906 186.603 387.906 184.31C387.906 181.883 388.346 179.79 389.226 178.03C390.133 176.243 391.346 174.883 392.866 173.95C394.386 172.99 396.066 172.51 397.906 172.51C400.76 172.51 402.826 173.683 404.106 176.03H404.386C404.253 173.043 404.186 168.883 404.186 163.55H410.866V188.55C410.866 190.257 410.92 191.603 411.026 192.59C411.16 193.55 411.346 194.537 411.586 195.55H404.986C404.746 194.43 404.653 193.59 404.706 193.03H404.426C403.12 195.163 400.973 196.23 397.986 196.23ZM394.786 184.31C394.786 185.883 395.226 187.19 396.106 188.23C396.986 189.27 398.146 189.79 399.586 189.79C401 189.79 402.146 189.27 403.026 188.23C403.906 187.19 404.346 185.883 404.346 184.31C404.346 182.71 403.893 181.403 402.986 180.39C402.106 179.377 400.96 178.87 399.546 178.87C398.16 178.87 397.013 179.377 396.106 180.39C395.226 181.403 394.786 182.71 394.786 184.31Z" fill="black"/>
<path d="M340.222 173.15H347.862C349.542 179.177 350.755 183.91 351.502 187.35H351.942C352.902 183.857 354.342 179.123 356.262 173.15H362.022C363.888 179.123 365.288 183.857 366.222 187.35H366.622C367.075 185.35 367.608 183.203 368.222 180.91C368.862 178.59 369.488 176.363 370.102 174.23L370.422 173.15H378.022L370.902 195.55H362.662C361.248 190.67 360.142 186.537 359.342 183.15H358.982C358.075 186.59 356.848 190.723 355.302 195.55H347.382L340.222 173.15Z" fill="black"/>
<path d="M327.749 196.23C325.456 196.23 323.416 195.737 321.629 194.75C319.869 193.737 318.496 192.337 317.509 190.55C316.523 188.737 316.029 186.683 316.029 184.39C316.029 182.097 316.523 180.057 317.509 178.27C318.496 176.457 319.883 175.043 321.669 174.03C323.456 173.017 325.483 172.51 327.749 172.51C330.016 172.51 332.029 173.017 333.789 174.03C335.576 175.043 336.963 176.457 337.949 178.27C338.936 180.057 339.429 182.097 339.429 184.39C339.429 186.683 338.936 188.737 337.949 190.55C336.963 192.337 335.576 193.737 333.789 194.75C332.029 195.737 330.016 196.23 327.749 196.23ZM322.949 184.39C322.949 185.99 323.389 187.297 324.269 188.31C325.176 189.323 326.336 189.83 327.749 189.83C329.136 189.83 330.269 189.323 331.149 188.31C332.056 187.27 332.509 185.963 332.509 184.39C332.509 182.763 332.069 181.443 331.189 180.43C330.309 179.417 329.163 178.91 327.749 178.91C326.336 178.91 325.176 179.43 324.269 180.47C323.389 181.483 322.949 182.79 322.949 184.39Z" fill="black"/>
<path d="M285.72 164.35H292.8C292.8 169.79 292.733 174.003 292.6 176.99L292.8 177.07C295.093 176.857 297.213 176.75 299.16 176.75C301 176.75 303.013 176.857 305.2 177.07L305.4 176.99C305.267 174.003 305.2 169.79 305.2 164.35H312.28V195.55H305.2C305.2 190.35 305.267 186.31 305.4 183.43L305.16 183.35C303.027 183.563 301.027 183.67 299.16 183.67C297.213 183.67 295.107 183.563 292.84 183.35L292.6 183.43C292.733 186.31 292.8 190.35 292.8 195.55H285.72V164.35Z" fill="black"/>
<path d="M154.46 580.25C151.27 580.25 148.68 582.84 148.68 586.03C148.68 589.22 151.27 591.81 154.46 591.81C157.65 591.81 160.24 589.22 160.24 586.03C160.24 582.84 157.65 580.25 154.46 580.25Z" fill="#022A1C"/>
<path d="M161.68 568.69H147.23C141.65 568.69 137.12 573.23 137.12 578.81V593.26C137.12 598.84 141.66 603.37 147.24 603.37H161.69C167.27 603.37 171.8 598.83 171.8 593.25V578.8C171.8 573.22 167.26 568.69 161.68 568.69ZM154.46 594.7C149.68 594.7 145.79 590.81 145.79 586.03C145.79 581.25 149.68 577.36 154.46 577.36C159.24 577.36 163.13 581.25 163.13 586.03C163.13 590.81 159.24 594.7 154.46 594.7ZM164.58 577.36C163.78 577.36 163.13 576.71 163.13 575.91C163.13 575.11 163.78 574.46 164.58 574.46C165.38 574.46 166.03 575.11 166.03 575.91C166.03 576.71 165.38 577.36 164.58 577.36Z" fill="#022A1C"/>
<path d="M205.85 567C195.28 567 186.72 575.57 186.72 586.13C186.72 595.72 193.79 603.64 202.99 605.03V591.2H198.26V586.17H202.99V582.82C202.99 577.28 205.69 574.85 210.29 574.85C212.5 574.85 213.66 575.01 214.21 575.09V579.48H211.07C209.12 579.48 208.43 581.33 208.43 583.42V586.17H214.16L213.38 591.2H208.43V605.07C217.77 603.8 224.97 595.82 224.97 586.13C224.97 575.56 216.4 567 205.84 567H205.85Z" fill="#022A1C"/>
<defs>
<filter id="filter0_d_11400_2987" x="76.14" y="69.2793" width="348.941" height="600.521" filterUnits="userSpaceOnUse" color-interpolation-filters="sRGB">
<feFlood flood-opacity="0" result="BackgroundImageFix"/>
<feColorMatrix in="SourceAlpha" type="matrix" values="0 0 0 0 0 0 0 0 0 0 0 0 0 0 0 0 0 0 127 0" result="hardAlpha"/>
<feOffset dx="4" dy="9"/>
<feGaussianBlur stdDeviation="15"/>
<feColorMatrix type="matrix" values="0 0 0 0 0.0235294 0 0 0 0 0.462745 0 0 0 0 0.317647 0 0 0 0.5 0"/>
<feBlend mode="normal" in2="BackgroundImageFix" result="effect1_dropShadow_11400_2987"/>
<feBlend mode="normal" in="SourceGraphic" in2="effect1_dropShadow_11400_2987" result="shape"/>
</filter>
<filter id="filter1_d_11400_2987" x="40.22" y="40.01" width="166.76" height="166.76" filterUnits="userSpaceOnUse" color-interpolation-filters="sRGB">
<feFlood flood-opacity="0" result="BackgroundImageFix"/>
<feColorMatrix in="SourceAlpha" type="matrix" values="0 0 0 0 0 0 0 0 0 0 0 0 0 0 0 0 0 0 127 0" result="hardAlpha"/>
<feOffset dx="5" dy="10"/>
<feGaussianBlur stdDeviation="20"/>
<feColorMatrix type="matrix" values="0 0 0 0 0.0235294 0 0 0 0 0.462745 0 0 0 0 0.317647 0 0 0 0.5 0"/>
<feBlend mode="normal" in2="BackgroundImageFix" result="effect1_dropShadow_11400_2987"/>
<feBlend mode="normal" in="SourceGraphic" in2="effect1_dropShadow_11400_2987" result="shape"/>
</filter>
<filter id="filter2_d_11400_2987" x="233.51" y="111.22" width="437.57" height="525.62" filterUnits="userSpaceOnUse" color-interpolation-filters="sRGB">
<feFlood flood-opacity="0" result="BackgroundImageFix"/>
<feColorMatrix in="SourceAlpha" type="matrix" values="0 0 0 0 0 0 0 0 0 0 0 0 0 0 0 0 0 0 127 0" result="hardAlpha"/>
<feOffset dx="4" dy="9"/>
<feGaussianBlur stdDeviation="15"/>
<feColorMatrix type="matrix" values="0 0 0 0 0.0235294 0 0 0 0 0.462745 0 0 0 0 0.317647 0 0 0 0.5 0"/>
<feBlend mode="normal" in2="BackgroundImageFix" result="effect1_dropShadow_11400_2987"/>
<feBlend mode="normal" in="SourceGraphic" in2="effect1_dropShadow_11400_2987" result="shape"/>
</filter>
</defs>
</svg>
